<?xml version="1.0" encoding="UTF-8"?> <svg xmlns="http://www.w3.org/2000/svg" xmlns:xlink="http://www.w3.org/1999/xlink" version="1.1" id="Layer_1" x="0px" y="0px" viewBox="0 0 288.2 130.8" style="enable-background:new 0 0 288.2 130.8;" xml:space="preserve"> <style type="text/css"> .st0{fill:#231F20;} .st1{fill:#086FB8;} .st2{fill:#00B4A0;} .st3{fill:#252A69;} </style> <g> <g> <g> <path class="st0" d="M56.1,81.4c-2.4,0-4.2-0.5-5.6-1.6c-1.4-1.1-2.1-2.8-2.1-5.3c0-0.4,0-0.8,0.1-1.2c0-0.4,0.1-0.8,0.1-1.2 l4.9-31h6.8l-4.8,30.2c0,0.2-0.1,0.4-0.1,0.6s0,0.4,0,0.6c0,1.1,0.3,1.8,1,2.2c0.6,0.4,1.5,0.6,2.5,0.6h13.2l-0.9,6H56.1V81.4z"></path> <path class="st0" d="M84.7,81.7c-1.5,0-2.9-0.3-4.1-1s-2.2-1.8-3-3.2c-0.7-1.5-1.1-3.4-1.1-5.7c0-1,0.1-2.1,0.2-3.2 s0.3-2,0.4-2.8c0.5-3.2,1.4-5.8,2.6-7.8c1.2-2.1,2.8-3.6,4.9-4.6s4.7-1.5,7.8-1.5c1.5,0,3,0.1,4.6,0.4c1.5,0.3,2.9,0.7,4.2,1.2 c1.3,0.5,2.3,1.1,3.2,1.8l-4.1,26.2h-5.9l-0.3-3c-0.5,0.4-1.3,0.9-2.3,1.4s-2.1,1-3.4,1.4C87.1,81.5,85.9,81.7,84.7,81.7z M87.8,76.2c1.4,0,2.6-0.2,3.7-0.7s2.1-1,3.1-1.6l2.5-15.5c-0.4-0.2-1-0.5-1.9-0.7c-0.9-0.3-1.9-0.4-3.1-0.4 c-1.8,0-3.2,0.3-4.3,1c-1.1,0.7-2,1.7-2.6,3s-1.1,3-1.4,5c-0.1,0.9-0.3,1.7-0.3,2.4c-0.1,0.7-0.1,1.3-0.1,1.8 c0,1.7,0.4,3.1,1.2,4.2C85.2,75.7,86.4,76.2,87.8,76.2z"></path> <path class="st0" d="M115,81.7c-2.5,0-4.4-0.6-5.5-1.8c-1.2-1.2-1.8-2.9-1.8-5c0-0.7,0-1.3,0.1-1.8s0.1-1,0.2-1.5l3.1-19.3h6.8 L115,70.9c0,0.2-0.1,0.4-0.1,0.7c0,0.2,0,0.5,0,0.8c0,1.2,0.3,2.1,1,2.6c0.7,0.6,1.7,0.8,3,0.8c1.5,0,2.9-0.2,4.1-0.7 c1.2-0.5,2.4-1.1,3.6-1.9l3.3-20.9h6.8l-4.6,29.2h-5.9l-0.3-3.1c-1.1,0.7-2.1,1.3-3.1,1.8s-2.2,0.9-3.4,1.2 C118,81.6,116.6,81.7,115,81.7z"></path> <path class="st0" d="M149.8,81.7c-1.1,0-2.2,0-3.3-0.1s-2.2-0.1-3.2-0.2s-2-0.2-2.9-0.4c-0.9-0.1-1.6-0.3-2.3-0.5l0.6-4h12.5 c1.2,0,2.2-0.2,3-0.6s1.2-1.1,1.4-2.1l0.2-1.5c0-0.2,0.1-0.3,0.1-0.4s0-0.2,0-0.2c0-1.4-0.9-2.1-2.8-2.1h-4.7 c-1.6,0-3-0.2-4.2-0.6s-2.2-1-2.8-1.8c-0.7-0.8-1-1.9-1-3.2c0-0.4,0-0.8,0-1.2c0-0.4,0.1-0.8,0.1-1.3l0.4-2.1 c0.3-1.5,0.8-2.8,1.6-3.9c0.8-1.1,2-2,3.5-2.7c1.6-0.7,3.7-1,6.3-1c1.1,0,2.3,0.1,3.7,0.2c1.4,0.1,2.7,0.2,4.1,0.4 c1.3,0.2,2.4,0.4,3.3,0.6l-0.7,4H151c-1.3,0-2.3,0.2-2.9,0.7c-0.6,0.5-1,1.2-1.3,2.2l-0.2,1.1c-0.1,0.3-0.1,0.6-0.1,0.8 c0,0.2,0,0.4,0,0.6c0,0.6,0.2,1.1,0.7,1.3c0.5,0.3,1.3,0.4,2.4,0.4h5.1c2.2,0,4,0.5,5.4,1.5s2,2.4,2,4.2c0,0.3,0,0.7,0,1 c0,0.4-0.1,0.7-0.1,1.1l-0.4,2.6c-0.4,2.6-1.7,4.5-3.8,5.5C155.8,81.2,153.1,81.7,149.8,81.7z"></path> <path class="st0" d="M175.1,81.7c-1.5,0-2.9-0.3-4.1-1c-1.2-0.7-2.2-1.8-3-3.2c-0.7-1.5-1.1-3.4-1.1-5.7c0-1,0.1-2.1,0.2-3.2 c0.1-1.1,0.3-2,0.4-2.8c0.5-3.2,1.4-5.8,2.6-7.8c1.2-2.1,2.8-3.6,4.9-4.6c2.1-1,4.7-1.5,7.8-1.5c1.5,0,3,0.1,4.6,0.4 c1.5,0.3,2.9,0.7,4.2,1.2s2.3,1.1,3.2,1.8l-4.1,26.2h-5.9l-0.3-3c-0.5,0.4-1.3,0.9-2.3,1.4s-2.1,1-3.4,1.4 C177.6,81.5,176.3,81.7,175.1,81.7z M178.3,76.2c1.4,0,2.6-0.2,3.7-0.7c1.1-0.5,2.1-1,3.1-1.6l2.5-15.5c-0.4-0.2-1-0.5-1.9-0.7 c-0.9-0.3-1.9-0.4-3.1-0.4c-1.8,0-3.2,0.3-4.3,1s-2,1.7-2.6,3s-1.1,3-1.4,5c-0.1,0.9-0.3,1.7-0.3,2.4c-0.1,0.7-0.1,1.3-0.1,1.8 c0,1.7,0.4,3.1,1.2,4.2C175.7,75.7,176.8,76.2,178.3,76.2z"></path> <path class="st0" d="M196.9,81.4l4.6-29.2h5.6l0.7,3.1c1.4-0.9,3-1.8,4.7-2.4c1.8-0.7,3.7-1,5.8-1c1.7,0,3.1,0.3,4.2,0.9 c1.1,0.6,1.9,1.4,2.5,2.4c0.5,1,0.8,2.2,0.8,3.5c0,0.5,0,1.2-0.1,1.9c-0.1,0.7-0.2,2-0.5,3.7l-2.7,17.1h-6.7l2.7-17 c0.1-0.9,0.2-1.5,0.2-1.9c0.1-0.4,0.1-0.7,0.1-1c0-1.1-0.3-1.9-0.9-2.6c-0.6-0.7-1.7-1-3.2-1s-2.8,0.2-4,0.7 c-1.2,0.5-2.4,1.1-3.6,2l-3.3,20.9L196.9,81.4L196.9,81.4z"></path> <path class="st0" d="M228.8,81.4l4.6-29.2h5.6l0.7,3.1c1.4-0.9,3-1.8,4.7-2.4c1.8-0.7,3.7-1,5.8-1c1.7,0,3.1,0.3,4.2,0.9 c1.1,0.6,1.9,1.4,2.5,2.4c0.5,1,0.8,2.2,0.8,3.5c0,0.5,0,1.2-0.1,1.9c-0.1,0.7-0.2,2-0.5,3.7l-2.8,17.2h-6.7l2.7-17 c0.1-0.9,0.2-1.5,0.2-1.9c0.1-0.4,0.1-0.7,0.1-1c0-1.1-0.3-1.9-0.9-2.6c-0.6-0.7-1.7-1-3.2-1c-1.5,0-2.8,0.2-4,0.7 c-1.2,0.5-2.4,1.1-3.6,2l-3.4,20.7H228.8z"></path> <path class="st0" d="M273.3,81.7c-2.8,0-5.1-0.4-6.8-1.2c-1.7-0.8-3-2-3.7-3.6c-0.8-1.6-1.2-3.5-1.2-5.8c0-1,0.1-2,0.2-3 s0.2-1.9,0.4-2.8c0.5-3.1,1.3-5.6,2.6-7.6c1.3-2,3-3.5,5-4.4c2.1-1,4.6-1.4,7.4-1.4c1.5,0,2.9,0.1,4.2,0.4 c1.3,0.3,2.5,0.7,3.5,1.3s1.8,1.5,2.4,2.6s0.9,2.5,0.9,4.2c0,2-0.3,3.6-1,4.9c-0.7,1.3-1.6,2.3-2.9,3c-1.2,0.7-2.6,1.2-4.2,1.4 c-1.6,0.3-3.2,0.4-4.9,0.4c-1.5,0-2.8-0.1-4-0.2s-2.1-0.3-2.8-0.5c-0.1,0.4-0.1,0.8-0.1,1.2c0,0.4,0,0.8,0,1.2 c0,1.7,0.6,3,1.8,3.7c1.2,0.8,3.1,1.2,5.9,1.2h9.2l-0.7,4c-1.3,0.3-2.9,0.5-4.9,0.7C277.6,81.6,275.5,81.7,273.3,81.7z M273.4,66.1c1.9,0,3.5-0.2,4.7-0.5c1.3-0.3,2.2-0.9,2.9-1.6c0.7-0.8,1-1.8,1-3.1c0-1.4-0.4-2.4-1.3-3c-0.8-0.6-2.1-1-3.8-1 c-1.7,0-3,0.3-4.1,1c-1.1,0.7-1.9,1.7-2.5,3s-1,2.9-1.3,4.8c0.6,0.1,1.3,0.2,2.1,0.3C271.8,66.1,272.6,66.1,273.4,66.1z"></path> </g> <g> <g> <path class="st1" d="M32.4,68.5c0.8-0.1,1.6-0.5,2.1-1s0.8-1.3,0.8-2c0-0.8-0.3-1.5-0.8-2s-1.2-0.9-2.1-1 c-0.8-0.1-1.6,0.2-2.2,0.8c-0.6,0.5-1,1.4-1,2.3s0.4,1.7,1,2.3C30.7,68.3,31.5,68.6,32.4,68.5z"></path> </g> <g> <path class="st2" d="M34.6,78.2c0.7-0.3,1.3-0.8,1.6-1.4s0.4-1.3,0.2-2s-0.7-1.2-1.3-1.6s-1.3-0.5-2.1-0.4 c-0.8,0.2-1.4,0.6-1.8,1.2c-0.4,0.6-0.5,1.4-0.3,2.2c0.2,0.8,0.8,1.4,1.4,1.8C33.1,78.4,33.8,78.5,34.6,78.2z"></path> </g> <g> <path class="st1" d="M39.3,86.9c0.6-0.4,0.9-1,1-1.7c0.1-0.6,0-1.3-0.3-1.8c-0.4-0.6-0.9-0.9-1.5-1.1s-1.3-0.1-1.9,0.2 c-0.6,0.3-1,0.9-1.2,1.6s-0.1,1.4,0.4,2c0.4,0.6,1,1,1.7,1.2C38.1,87.5,38.8,87.3,39.3,86.9z"></path> </g> <g> <path class="st3" d="M46.3,94c0.4-0.5,0.5-1.1,0.5-1.7c-0.1-0.6-0.3-1.1-0.8-1.5s-1-0.6-1.6-0.5c-0.6,0-1.2,0.3-1.6,0.7 c-0.5,0.5-0.7,1.1-0.6,1.7c0,0.6,0.3,1.2,0.8,1.7c0.5,0.4,1.2,0.6,1.8,0.6C45.4,94.8,46,94.5,46.3,94z"></path> </g> <g> <path class="st1" d="M55,98.9c0.2-0.5,0.2-1.1,0-1.6s-0.5-0.9-1-1.1s-1-0.2-1.5-0.1c-0.5,0.2-0.9,0.5-1.2,1s-0.3,1.1-0.1,1.6 s0.6,1,1.1,1.2c0.6,0.3,1.2,0.3,1.7,0.1C54.4,99.8,54.8,99.4,55,98.9z"></path> </g> <g> <path class="st1" d="M64.7,101.2c0.1-1-0.6-1.9-1.6-2c-0.9-0.1-1.9,0.5-2.1,1.5s0.5,2,1.5,2.1C63.7,103,64.6,102.2,64.7,101.2z"></path> </g> <g> <path class="st1" d="M74.6,100.8c-0.2-0.9-1-1.4-1.8-1.3s-1.5,0.9-1.4,1.8s0.9,1.5,1.8,1.4C74.2,102.5,74.8,101.7,74.6,100.8z"></path> </g> <g> <path class="st1" d="M84.1,97.7c-0.3-0.7-1.1-1-1.8-0.7c-0.7,0.3-1,1.1-0.7,1.8c0.3,0.7,1.1,1,1.8,0.7 C84.1,99.2,84.4,98.3,84.1,97.7z"></path> </g> <g> <path class="st1" d="M92.3,92c-0.4-0.5-1.1-0.5-1.6-0.1s-0.5,1.1-0.1,1.6s1.1,0.6,1.6,0.1C92.7,93.2,92.7,92.5,92.3,92z"></path> </g> <g> <path class="st1" d="M34.6,52.7c-0.7-0.3-1.5-0.2-2.1,0.1c-0.7,0.3-1.2,1-1.4,1.8s-0.1,1.6,0.3,2.2c0.4,0.6,1,1.1,1.8,1.2 c0.8,0.2,1.5,0,2.1-0.4s1.1-0.9,1.3-1.6c0.2-0.7,0.1-1.4-0.2-2C35.8,53.5,35.3,53,34.6,52.7z"></path> </g> <g> <path class="st2" d="M39.3,44c-0.6-0.4-1.3-0.6-1.9-0.4c-0.7,0.1-1.3,0.5-1.7,1.2c-0.4,0.6-0.5,1.4-0.4,2 c0.2,0.7,0.6,1.2,1.2,1.6c0.6,0.3,1.3,0.4,1.9,0.2c0.6-0.2,1.2-0.5,1.5-1.1c0.4-0.6,0.5-1.2,0.3-1.8C40.3,45,39.9,44.4,39.3,44z "></path> </g> <g> <path class="st1" d="M46.3,36.9c-0.4-0.5-1-0.8-1.6-0.9c-0.6-0.1-1.3,0.1-1.8,0.6c-0.5,0.4-0.8,1.1-0.8,1.7 c0,0.6,0.2,1.2,0.6,1.7c0.5,0.5,1,0.7,1.6,0.7s1.2-0.2,1.6-0.5c0.5-0.4,0.7-0.9,0.8-1.5C46.9,38,46.7,37.4,46.3,36.9z"></path> </g> <g> <path class="st1" d="M55,32c-0.2-0.5-0.6-0.9-1.1-1.1c-0.5-0.2-1.1-0.2-1.7,0.1c-0.6,0.3-0.9,0.7-1.1,1.2 c-0.2,0.5-0.1,1.1,0.1,1.6c0.3,0.5,0.7,0.9,1.2,1c0.5,0.2,1,0.2,1.5-0.1c0.5-0.2,0.8-0.6,1-1.1C55.2,33.1,55.2,32.5,55,32z"></path> </g> <g> <path class="st1" d="M64.7,29.7c-0.1-1-1-1.8-2.1-1.6s-1.8,1.1-1.5,2.1c0.2,1,1.1,1.6,2.1,1.5C64.1,31.6,64.8,30.7,64.7,29.7z"></path> </g> <g> <path class="st1" d="M74.6,30.1c0.2-0.9-0.4-1.7-1.4-1.8c-0.9-0.1-1.7,0.5-1.8,1.4c-0.1,0.9,0.5,1.7,1.4,1.8S74.5,31,74.6,30.1z "></path> </g> <g> <path class="st1" d="M84.1,33.2c0.3-0.7,0-1.5-0.7-1.8s-1.5,0-1.8,0.7s0,1.5,0.7,1.8C82.9,34.2,83.7,33.9,84.1,33.2z"></path> </g> <g> <path class="st1" d="M92.3,38.9c0.4-0.5,0.4-1.2-0.1-1.6c-0.5-0.4-1.2-0.3-1.6,0.1c-0.4,0.5-0.3,1.2,0.1,1.6 C91.2,39.4,91.9,39.3,92.3,38.9z"></path> </g> <g> <path class="st1" d="M98.7,46.5c0.4-0.3,0.5-0.8,0.3-1.2c-0.3-0.4-0.8-0.5-1.2-0.2c-0.4,0.3-0.5,0.8-0.2,1.2 C97.7,46.6,98.3,46.8,98.7,46.5z"></path> </g> <g> <g> <g> <path class="st3" d="M32.1,85.5c0.8-0.5,1.4-1.2,1.7-2.1c0.3-0.8,0.3-1.7-0.1-2.5c-0.4-0.8-1-1.4-1.8-1.7 c-0.8-0.3-1.8-0.4-2.7,0c-0.9,0.3-1.6,1-1.9,1.9C27,82,27,83,27.4,83.9c0.4,0.9,1.2,1.6,2.1,1.9C30.3,86.1,31.3,86,32.1,85.5z "></path> </g> <g> <path class="st1" d="M39.2,94.6c0.6-0.6,0.9-1.5,1-2.3c0-0.8-0.2-1.6-0.8-2.2c-0.5-0.6-1.3-1-2.1-1c-0.8-0.1-1.7,0.1-2.4,0.7 c-0.7,0.5-1.1,1.3-1.2,2.2c-0.1,0.8,0.2,1.7,0.8,2.5c0.6,0.7,1.5,1.1,2.3,1.1C37.7,95.5,38.5,95.2,39.2,94.6z"></path> </g> <g> <path class="st1" d="M48.4,101.3c0.4-0.7,0.4-1.5,0.3-2.2c-0.2-0.7-0.6-1.3-1.2-1.7c-0.6-0.4-1.4-0.5-2.1-0.4 c-0.7,0.1-1.4,0.5-1.9,1.2s-0.7,1.4-0.5,2.2c0.1,0.8,0.6,1.5,1.4,1.9c0.7,0.5,1.6,0.6,2.3,0.4C47.4,102.6,48,102.1,48.4,101.3 z"></path> </g> <g> <path class="st1" d="M59.1,105.3c0.2-0.7,0-1.4-0.3-2s-0.9-1-1.5-1.2c-0.7-0.2-1.3-0.1-1.9,0.2c-0.6,0.3-1.1,0.8-1.3,1.5 c-0.3,0.7-0.2,1.4,0.1,2s0.9,1.1,1.7,1.3c0.8,0.2,1.5,0.1,2.1-0.2C58.5,106.6,59,106,59.1,105.3z"></path> </g> <g> <path class="st1" d="M70.5,106.2c0-0.7-0.3-1.2-0.8-1.7c-0.4-0.4-1-0.7-1.6-0.7s-1.2,0.3-1.6,0.7c-0.4,0.4-0.7,1-0.8,1.7 c0,0.7,0.2,1.3,0.6,1.7c0.4,0.4,1.1,0.7,1.8,0.7c0.7,0,1.3-0.3,1.8-0.7C70.3,107.5,70.6,106.9,70.5,106.2z"></path> </g> <g> <path class="st3" d="M81.7,103.9c-0.2-0.6-0.6-1-1.1-1.2s-1-0.3-1.6-0.2c-1.1,0.3-1.7,1.4-1.4,2.6c0.1,0.6,0.5,1,1,1.3 s1.1,0.4,1.7,0.2c0.6-0.2,1-0.6,1.3-1.1C81.9,105.1,81.9,104.5,81.7,103.9z"></path> </g> <g> <path class="st2" d="M91.9,98.7c-0.6-0.8-1.7-1-2.5-0.5s-1.1,1.6-0.6,2.5s1.7,1.2,2.6,0.6S92.5,99.5,91.9,98.7z"></path> </g> <g> <path class="st1" d="M100.2,90.8c-0.7-0.5-1.6-0.4-2.2,0.2c-0.5,0.6-0.5,1.6,0.1,2.2s1.6,0.5,2.2-0.1 C101,92.4,100.9,91.3,100.2,90.8z"></path> </g> </g> <g> <path class="st2" d="M26.9,68.5c-0.9,0.1-1.7,0.5-2.2,1.2s-0.8,1.6-0.6,2.5c0.1,0.9,0.7,1.7,1.4,2.2s1.6,0.7,2.4,0.5 c0.9-0.2,1.6-0.7,2-1.4c0.5-0.7,0.7-1.4,0.5-2.3c-0.1-0.8-0.6-1.5-1.2-2C28.7,68.7,27.8,68.4,26.9,68.5z"></path> </g> <g> <path class="st1" d="M27.7,57.1c-0.8-0.2-1.6,0-2.2,0.5c-0.6,0.5-1.1,1.2-1.2,2c-0.1,0.9,0.1,1.7,0.6,2.3c0.5,0.6,1.2,1,2,1 s1.6-0.2,2.1-0.7c0.6-0.5,1-1.1,1.1-1.8c0.1-0.7-0.1-1.5-0.5-2.1C29.2,57.7,28.5,57.2,27.7,57.1z"></path> </g> <g> <path class="st1" d="M31.6,46.3c-0.7-0.3-1.4-0.4-2-0.1c-0.7,0.2-1.2,0.8-1.6,1.5c-0.3,0.7-0.3,1.5,0,2.1s0.8,1.2,1.5,1.4 c0.7,0.3,1.4,0.2,2,0c0.6-0.3,1.1-0.7,1.4-1.3c0.3-0.6,0.3-1.3,0.1-1.9C32.7,47.2,32.2,46.6,31.6,46.3z"></path> </g> <g> <path class="st1" d="M38.2,37c-0.5-0.5-1.1-0.7-1.7-0.6c-0.6,0-1.2,0.3-1.7,0.9c-0.5,0.5-0.6,1.2-0.6,1.8 c0.1,0.6,0.4,1.2,0.9,1.6c0.5,0.4,1.2,0.5,1.8,0.5c0.6-0.1,1.2-0.3,1.6-0.8c0.4-0.5,0.6-1.1,0.5-1.7C38.9,38,38.7,37.4,38.2,37 z"></path> </g> <g> <path class="st1" d="M47.2,29.9c-0.3-0.5-0.8-0.8-1.3-1c-0.5-0.1-1.1,0-1.7,0.3c-0.5,0.3-0.8,0.9-0.9,1.4 c-0.1,0.5,0,1.1,0.4,1.6c0.7,0.9,2,1.2,2.9,0.6c0.5-0.3,0.8-0.8,0.9-1.3C47.5,31,47.5,30.4,47.2,29.9z"></path> </g> <g> <path class="st3" d="M57.7,25.5c-0.3-1-1.3-1.6-2.3-1.3c-1,0.3-1.6,1.4-1.2,2.3c0.4,1,1.4,1.5,2.3,1.2 C57.4,27.5,58,26.5,57.7,25.5z"></path> </g> <g> <path class="st1" d="M69.1,24.1c0-0.9-0.7-1.6-1.6-1.6s-1.6,0.8-1.5,1.6c0.1,0.9,0.8,1.5,1.6,1.5C68.4,25.7,69.1,25,69.1,24.1z "></path> </g> <g> <path class="st1" d="M80.4,26c0.2-0.7-0.2-1.4-0.9-1.6c-0.7-0.2-1.4,0.2-1.6,0.9c-0.2,0.7,0.2,1.4,0.9,1.6 C79.5,27.1,80.2,26.7,80.4,26z"></path> </g> <g> <path class="st3" d="M90.8,30.9c0.3-0.5,0.2-1.1-0.3-1.4c-0.5-0.3-1.1-0.1-1.4,0.3c-0.3,0.5-0.1,1.1,0.3,1.4 S90.4,31.3,90.8,30.9z"></path> </g> <g> <path class="st3" d="M99.4,38.4c0.3-0.3,0.3-0.7,0.1-1.1c-0.3-0.3-0.8-0.3-1.1-0.1c-0.3,0.3-0.3,0.7-0.1,1.1 C98.6,38.6,99.1,38.7,99.4,38.4z"></path> </g> </g> <g> <path class="st1" d="M20.8,69.5c1.1-0.1,2.1-0.6,2.8-1.3c0.7-0.7,1.1-1.7,1.1-2.7s-0.4-1.9-1.1-2.7c-0.7-0.7-1.6-1.2-2.8-1.3 c-1.1-0.1-2.1,0.3-2.9,1s-1.3,1.8-1.3,3s0.5,2.3,1.3,3C18.7,69.2,19.7,69.6,20.8,69.5z"></path> </g> <g> <path class="st1" d="M23.7,82.3c1-0.4,1.7-1.1,2.1-1.9c0.4-0.8,0.5-1.8,0.3-2.7c-0.3-0.9-0.9-1.6-1.7-2.1s-1.8-0.7-2.8-0.5 s-1.8,0.8-2.3,1.7c-0.5,0.8-0.6,1.9-0.3,3c0.3,1.1,1,1.9,1.9,2.3C21.8,82.6,22.8,82.7,23.7,82.3z"></path> </g> <g> <path class="st1" d="M30.1,93.8c0.7-0.6,1.2-1.4,1.4-2.2c0.2-0.8,0-1.7-0.4-2.4c-0.5-0.7-1.2-1.2-2-1.4 c-0.8-0.2-1.7-0.1-2.6,0.3c-0.8,0.4-1.4,1.2-1.6,2.1c-0.2,0.9-0.1,1.8,0.5,2.7c0.5,0.8,1.4,1.4,2.2,1.5 C28.4,94.6,29.3,94.4,30.1,93.8z"></path> </g> <g> <path class="st3" d="M39.3,103.2c0.5-0.7,0.7-1.5,0.6-2.3c-0.1-0.8-0.4-1.5-1-2s-1.4-0.8-2.1-0.7c-0.8,0-1.5,0.3-2.1,0.9 s-0.9,1.4-0.9,2.2c0,0.8,0.4,1.6,1.1,2.2c0.7,0.6,1.5,0.8,2.3,0.8C38.1,104.3,38.8,103.9,39.3,103.2z"></path> </g> <g> <path class="st1" d="M50.8,109.7c0.3-0.7,0.2-1.5,0-2.1c-0.3-0.6-0.7-1.2-1.4-1.5c-0.6-0.3-1.4-0.3-2-0.1 c-0.7,0.2-1.2,0.7-1.6,1.4c-0.4,0.7-0.4,1.4-0.2,2.1s0.8,1.3,1.5,1.6c0.7,0.3,1.5,0.3,2.2,0.1C49.9,110.9,50.5,110.4,50.8,109.7 z"></path> </g> <g> <path class="st1" d="M63.6,112.7c0.1-0.7-0.1-1.3-0.5-1.8s-0.9-0.8-1.5-0.9s-1.2,0.1-1.7,0.4c-0.5,0.4-0.9,0.9-1,1.6 s0,1.3,0.4,1.8s1,0.9,1.7,1s1.4-0.1,1.9-0.5C63.2,114,63.5,113.4,63.6,112.7z"></path> </g> <g> <path class="st1" d="M76.7,112.2c-0.2-1.2-1.3-1.9-2.4-1.8c-1.1,0.2-1.9,1.2-1.8,2.3c0.1,1.2,1.2,2,2.4,1.9 C76.1,114.5,76.9,113.3,76.7,112.2z"></path> </g> <g> <path class="st3" d="M89.2,108c-0.5-0.9-1.5-1.3-2.4-0.9s-1.3,1.4-0.9,2.4c0.4,0.9,1.4,1.4,2.4,0.9 C89.3,110,89.7,108.9,89.2,108z"></path> </g> <g> <path class="st1" d="M100.1,100.6c-0.6-0.6-1.5-0.7-2.1-0.2s-0.7,1.4-0.2,2.1c0.5,0.6,1.5,0.7,2.1,0.2 C100.6,102.2,100.6,101.2,100.1,100.6z"></path> </g> <g> <path class="st1" d="M108.5,90.5c-0.6-0.3-1.3-0.2-1.6,0.3c-0.3,0.5-0.2,1.2,0.3,1.6s1.3,0.2,1.6-0.3 C109.2,91.6,109.1,90.9,108.5,90.5z"></path> </g> <g> <path class="st2" d="M23.7,48.6c-1-0.4-2-0.3-2.8,0.1C20,49.1,19.3,50,19,51c-0.3,1.1-0.2,2.1,0.3,3c0.5,0.8,1.3,1.4,2.3,1.7 c1,0.2,2,0,2.8-0.5c0.8-0.5,1.4-1.2,1.7-2.1c0.3-0.9,0.1-1.8-0.3-2.7C25.4,49.7,24.7,49,23.7,48.6z"></path> </g> <g> <path class="st3" d="M30.1,37.1c-0.7-0.6-1.7-0.8-2.5-0.6c-0.9,0.2-1.7,0.7-2.2,1.5s-0.7,1.8-0.5,2.7s0.8,1.6,1.6,2.1 c0.8,0.4,1.7,0.5,2.6,0.3c0.8-0.2,1.5-0.7,2-1.4s0.6-1.6,0.4-2.4C31.3,38.4,30.8,37.6,30.1,37.1z"></path> </g> <g> <path class="st1" d="M39.3,27.7c-0.5-0.7-1.3-1.1-2.1-1.1c-0.8-0.1-1.7,0.2-2.3,0.8c-0.7,0.6-1,1.4-1.1,2.2 c0,0.8,0.3,1.6,0.9,2.2c0.6,0.6,1.4,0.9,2.1,0.9c0.8,0,1.5-0.2,2.1-0.7s0.9-1.2,1-2C40,29.2,39.8,28.4,39.3,27.7z"></path> </g> <g> <path class="st1" d="M50.8,21.2c-0.3-0.7-0.8-1.2-1.5-1.5s-1.5-0.3-2.2,0.1c-0.7,0.3-1.3,0.9-1.5,1.6s-0.2,1.4,0.2,2.1 s1,1.1,1.6,1.4c0.7,0.2,1.4,0.2,2-0.1c0.6-0.3,1.1-0.8,1.4-1.5C51,22.7,51,21.9,50.8,21.2z"></path> </g> <g> <path class="st3" d="M63.6,18.2c-0.1-0.7-0.4-1.3-0.9-1.6c-0.5-0.4-1.2-0.6-1.9-0.5c-0.7,0.1-1.3,0.5-1.7,1 c-0.4,0.5-0.5,1.2-0.4,1.8c0.1,0.7,0.5,1.2,1,1.6s1.1,0.5,1.7,0.4s1.2-0.4,1.5-0.9C63.4,19.5,63.6,18.8,63.6,18.2z"></path> </g> <g> <path class="st2" d="M76.7,18.7c0.2-1.2-0.6-2.3-1.8-2.4c-1.2-0.2-2.3,0.7-2.4,1.9c-0.1,1.2,0.7,2.2,1.8,2.3 C75.4,20.6,76.5,19.9,76.7,18.7z"></path> </g> <g> <path class="st2" d="M89.2,22.9c0.4-0.9,0.1-2-0.9-2.4s-2,0-2.4,0.9s0.1,2,0.9,2.4C87.7,24.1,88.8,23.7,89.2,22.9z"></path> </g> <g> <path class="st3" d="M100.1,30.3c0.6-0.6,0.5-1.6-0.2-2.1c-0.6-0.6-1.6-0.5-2.1,0.2C97.3,29,97.4,30,98,30.5 C98.6,30.9,99.5,30.9,100.1,30.3z"></path> </g> <g> <path class="st1" d="M108.5,40.4c0.6-0.3,0.7-1.1,0.3-1.6c-0.4-0.6-1.1-0.7-1.6-0.3s-0.7,1.1-0.3,1.6 C107.2,40.6,108,40.7,108.5,40.4z"></path> </g> <g> <g> <g> <path class="st1" d="M20.5,92c1.1-0.6,1.9-1.6,2.2-2.7c0.4-1.1,0.3-2.3-0.2-3.3c-0.5-1.1-1.4-1.8-2.4-2.3 c-1.1-0.4-2.3-0.5-3.5-0.1s-2.1,1.3-2.6,2.5c-0.5,1.1-0.4,2.5,0.1,3.7c0.6,1.3,1.6,2.1,2.8,2.5C18.1,92.8,19.4,92.6,20.5,92z"></path> </g> <g> <path class="st1" d="M29.8,104c0.8-0.8,1.2-1.9,1.3-3c0-1.1-0.3-2.1-1-2.9s-1.7-1.3-2.8-1.4s-2.2,0.2-3.1,0.9 c-0.9,0.7-1.5,1.7-1.6,2.8c-0.1,1.1,0.3,2.3,1.1,3.3c0.8,1,2,1.5,3.1,1.5C27.9,105.2,29,104.8,29.8,104z"></path> </g> <g> <path class="st1" d="M42,112.9c0.5-0.9,0.6-2,0.4-2.9c-0.2-0.9-0.8-1.8-1.6-2.3S39,107,38,107.2s-1.9,0.7-2.5,1.6 s-0.9,1.9-0.7,2.9s0.8,2,1.8,2.6s2.1,0.8,3.1,0.5C40.6,114.5,41.5,113.9,42,112.9z"></path> </g> <g> <path class="st2" d="M56.2,118.2c0.2-1,0-1.9-0.4-2.7c-0.4-0.8-1.1-1.3-2-1.6c-0.9-0.3-1.8-0.1-2.6,0.3s-1.4,1.1-1.8,2 c-0.3,0.9-0.3,1.9,0.2,2.7c0.4,0.8,1.2,1.5,2.2,1.8s2,0.1,2.8-0.3C55.4,119.9,56,119.1,56.2,118.2z"></path> </g> <g> <path class="st1" d="M71.3,119.4c-0.1-0.9-0.5-1.6-1-2.2c-0.6-0.5-1.3-0.9-2.1-0.9c-0.8,0-1.6,0.3-2.1,0.9 c-0.6,0.6-1,1.3-1,2.2c0,0.9,0.3,1.7,0.8,2.3c0.6,0.6,1.4,1,2.3,1s1.8-0.4,2.3-1C71,121,71.3,120.2,71.3,119.4z"></path> </g> <g> <path class="st1" d="M86.1,116.3c-0.3-0.7-0.8-1.3-1.4-1.6c-0.6-0.3-1.4-0.4-2.1-0.2c-0.7,0.2-1.3,0.7-1.6,1.3 c-0.3,0.6-0.5,1.4-0.3,2.1c0.2,0.8,0.7,1.4,1.3,1.7c0.6,0.4,1.4,0.5,2.2,0.2c0.8-0.2,1.4-0.8,1.7-1.4 C86.3,117.8,86.4,117.1,86.1,116.3z"></path> </g> <g> <path class="st2" d="M99.5,109.4c-0.4-0.5-1-0.9-1.6-1s-1.2,0-1.8,0.3c-1.1,0.7-1.4,2.2-0.8,3.3c0.3,0.6,0.9,1,1.5,1.1 s1.3,0,1.9-0.3c0.6-0.4,1-1,1.1-1.6C100.1,110.6,99.9,109.9,99.5,109.4z"></path> </g> <g> <path class="st3" d="M110.6,99c-0.9-0.7-2.2-0.6-2.9,0.2c-0.7,0.8-0.6,2.1,0.2,2.9c0.8,0.8,2.2,0.7,3-0.2 C111.6,101,111.5,99.7,110.6,99z"></path> </g> <g> <path class="st1" d="M118.3,86c-0.9-0.4-1.9,0-2.2,0.9c-0.4,0.8,0,1.8,0.8,2.3c0.8,0.4,1.9,0.1,2.3-0.8 C119.6,87.3,119.2,86.3,118.3,86z"></path> </g> <g> <path class="st1" d="M117.4,41.7c-0.3,0.1-0.5,0.5-0.3,0.8c0.1,0.3,0.5,0.5,0.8,0.3c0.3-0.1,0.5-0.5,0.3-0.8 C118.1,41.7,117.7,41.6,117.4,41.7z"></path> </g> </g> <g> <path class="st1" d="M13.7,69.5c-1.2,0.1-2.2,0.6-2.9,1.5c-0.7,0.9-1,2.1-0.8,3.3c0.2,1.3,0.9,2.3,1.8,2.9s2.1,0.9,3.2,0.6 s2.1-1,2.7-1.8c0.6-0.9,0.9-1.9,0.7-3s-0.7-2-1.6-2.6C15.9,69.8,14.8,69.4,13.7,69.5z"></path> </g> <g> <path class="st1" d="M14.7,54.4c-1-0.2-2.1,0-2.9,0.6s-1.4,1.6-1.6,2.7s0.2,2.2,0.8,3c0.6,0.8,1.6,1.3,2.7,1.4s2.1-0.3,2.8-0.9 c0.8-0.6,1.3-1.5,1.4-2.4c0.1-1-0.1-1.9-0.7-2.7C16.6,55.2,15.7,54.6,14.7,54.4z"></path> </g> <g> <path class="st1" d="M19.7,40.1c-0.9-0.5-1.8-0.5-2.7-0.2s-1.6,1-2.1,1.9c-0.4,0.9-0.4,2-0.1,2.8c0.4,0.9,1,1.5,2,1.9 c0.9,0.3,1.9,0.3,2.7-0.1c0.8-0.3,1.5-0.9,1.9-1.8c0.4-0.8,0.4-1.7,0.1-2.6C21.2,41.3,20.6,40.6,19.7,40.1z"></path> </g> <g> <path class="st1" d="M28.5,27.8c-0.6-0.6-1.5-0.9-2.3-0.8c-0.8,0-1.7,0.4-2.2,1.2c-0.6,0.7-0.8,1.6-0.8,2.4 c0.1,0.8,0.5,1.6,1.2,2.1s1.5,0.7,2.3,0.6c0.8-0.1,1.5-0.4,2.1-1.1c0.5-0.6,0.8-1.4,0.7-2.2C29.5,29.2,29.2,28.4,28.5,27.8z"></path> </g> <g> <path class="st1" d="M40.4,18.4c-0.4-0.7-1-1.1-1.7-1.3c-0.7-0.2-1.5,0-2.2,0.4s-1.1,1.1-1.2,1.8c-0.1,0.7,0,1.5,0.5,2.1 s1.1,1,1.8,1.1s1.4,0,2-0.4s1-1,1.2-1.7C40.9,19.8,40.8,19.1,40.4,18.4z"></path> </g> <g> <path class="st1" d="M54.4,12.6c-0.2-0.7-0.6-1.2-1.1-1.5c-0.6-0.3-1.2-0.4-1.9-0.2c-0.7,0.2-1.2,0.7-1.5,1.2 c-0.3,0.6-0.3,1.2-0.1,1.9c0.5,1.3,1.8,1.9,3,1.6c0.6-0.2,1.1-0.6,1.4-1.2C54.4,13.9,54.5,13.2,54.4,12.6z"></path> </g> <g> <path class="st1" d="M69.4,10.8c0-1.1-0.9-2.1-2.1-2.1s-2.1,1-2,2.1s1,2,2.1,2C68.4,12.9,69.4,12,69.4,10.8z"></path> </g> <g> <path class="st2" d="M84.3,13.3c0.3-0.9-0.2-1.9-1.2-2.1c-0.9-0.3-1.9,0.3-2.1,1.2c-0.2,0.9,0.3,1.8,1.2,2.1 C83.1,14.7,84.1,14.2,84.3,13.3z"></path> </g> <g> <path class="st2" d="M98,19.7c0.4-0.6,0.2-1.5-0.4-1.9c-0.7-0.4-1.5-0.2-1.9,0.5c-0.4,0.6-0.2,1.5,0.4,1.8 C96.8,20.5,97.6,20.3,98,19.7z"></path> </g> <g> <path class="st1" d="M109.4,29.7c0.4-0.4,0.5-1,0.1-1.4s-1-0.4-1.4-0.1c-0.4,0.4-0.4,1-0.1,1.4C108.4,30,109,30,109.4,29.7z"></path> </g> </g> <g> <path class="st1" d="M5.6,70.8C7.1,70.7,8.3,70,9.2,69s1.5-2.2,1.5-3.5s-0.5-2.6-1.5-3.5c-0.9-1-2.2-1.6-3.6-1.8 c-1.5-0.1-2.8,0.4-3.9,1.3c-1,1-1.7,2.4-1.7,4c0,1.6,0.7,3,1.7,4C2.7,70.4,4.1,70.9,5.6,70.8z"></path> </g> <g> <path class="st1" d="M9.4,87.7c1.3-0.5,2.2-1.4,2.8-2.5c0.6-1.1,0.7-2.3,0.4-3.5c-0.3-1.2-1.2-2.1-2.2-2.8 C9.3,78.3,8,78,6.7,78.3s-2.4,1.1-3.1,2.2c-0.7,1.1-0.9,2.5-0.4,3.9c0.4,1.4,1.4,2.5,2.5,3.1C6.8,88.1,8.1,88.2,9.4,87.7z"></path> </g> <g> <path class="st2" d="M17.8,103c1-0.7,1.6-1.8,1.8-2.9s0-2.2-0.6-3.2c-0.6-1-1.6-1.6-2.7-1.9c-1.1-0.3-2.3-0.2-3.4,0.4 s-1.8,1.6-2.1,2.7c-0.3,1.1-0.1,2.4,0.6,3.6c0.7,1.1,1.8,1.8,3,2C15.6,104,16.8,103.7,17.8,103z"></path> </g> <g> <path class="st1" d="M30,115.4c0.7-0.9,0.9-2,0.8-3c-0.1-1-0.5-2-1.3-2.6c-0.8-0.7-1.8-1-2.8-1s-2,0.5-2.8,1.2 c-0.8,0.8-1.2,1.8-1.1,2.9c0,1.1,0.5,2.1,1.4,2.9s2,1.1,3.1,1C28.3,116.8,29.3,116.3,30,115.4z"></path> </g> <g> <path class="st2" d="M45.2,123.9c0.4-0.9,0.3-1.9,0-2.8s-1-1.6-1.8-2c-0.9-0.4-1.8-0.4-2.7-0.1s-1.6,0.9-2.1,1.8 s-0.5,1.9-0.2,2.8s1,1.7,2,2.1c1,0.4,2,0.5,2.9,0.1C44.1,125.6,44.8,124.9,45.2,123.9z"></path> </g> <g> <path class="st1" d="M62.1,128c0.1-0.9-0.2-1.7-0.7-2.4c-0.5-0.6-1.2-1.1-2-1.2c-0.8-0.1-1.6,0.1-2.3,0.6 c-0.7,0.5-1.2,1.2-1.3,2.1c-0.2,0.9,0,1.7,0.5,2.4s1.3,1.2,2.2,1.3c0.9,0.1,1.8-0.1,2.5-0.6C61.6,129.6,62,128.9,62.1,128z"></path> </g> <g> <path class="st1" d="M79.5,127.3c-0.1-0.8-0.6-1.4-1.1-1.8c-0.6-0.4-1.3-0.6-2-0.5s-1.4,0.5-1.8,1c-0.4,0.6-0.7,1.3-0.6,2.1 c0.1,0.8,0.4,1.4,1,1.9s1.3,0.7,2.1,0.6c0.8-0.1,1.5-0.5,1.9-1.1C79.4,128.8,79.6,128,79.5,127.3z"></path> </g> <g> <path class="st1" d="M96,121.8c-0.6-1.2-2-1.7-3.1-1.2s-1.7,1.9-1.2,3.1c0.5,1.2,1.9,1.8,3.2,1.2C96.1,124.4,96.6,123,96,121.8z "></path> </g> <g> <path class="st3" d="M110.4,112c-0.7-0.8-2-0.9-2.8-0.2c-0.8,0.7-0.9,1.9-0.2,2.8c0.7,0.9,1.9,1,2.8,0.2 C111,114,111.1,112.8,110.4,112z"></path> </g> <g> <path class="st1" d="M121.5,98.6c-0.7-0.5-1.7-0.2-2.1,0.5c-0.5,0.7-0.3,1.6,0.4,2.1c0.7,0.5,1.7,0.3,2.2-0.4 C122.5,100,122.3,99.1,121.5,98.6z"></path> </g> <g> <path class="st1" d="M9.4,43.2c-1.3-0.5-2.6-0.4-3.8,0.2c-1.1,0.6-2.1,1.7-2.5,3.1c-0.4,1.4-0.2,2.8,0.4,3.9 c0.7,1.1,1.7,1.9,3.1,2.2c1.3,0.3,2.6,0,3.7-0.6s1.9-1.6,2.2-2.8c0.3-1.2,0.2-2.4-0.4-3.5C11.6,44.6,10.7,43.7,9.4,43.2z"></path> </g> <g> <path class="st3" d="M17.8,27.9c-1-0.7-2.2-1-3.3-0.8c-1.2,0.2-2.3,0.9-3,2s-0.9,2.4-0.6,3.6c0.3,1.1,1,2.1,2.1,2.7 c1.1,0.6,2.3,0.7,3.4,0.4c1.1-0.3,2-0.9,2.7-1.9c0.6-1,0.8-2.1,0.6-3.2C19.4,29.7,18.8,28.7,17.8,27.9z"></path> </g> <g> <path class="st3" d="M30,15.5c-0.7-0.9-1.7-1.4-2.7-1.5c-1.1-0.1-2.2,0.2-3.1,1c-0.9,0.8-1.4,1.9-1.4,2.9c0,1.1,0.3,2.1,1.1,2.9 c0.8,0.8,1.8,1.2,2.8,1.2s2-0.3,2.8-1s1.2-1.6,1.3-2.6C30.9,17.5,30.7,16.4,30,15.5z"></path> </g> <g> <path class="st1" d="M45.2,7c-0.4-0.9-1.1-1.6-2-2c-0.9-0.3-1.9-0.3-2.9,0.1c-1,0.4-1.7,1.2-2,2.1s-0.2,1.9,0.2,2.8 c0.5,0.9,1.3,1.5,2.1,1.8c0.9,0.3,1.8,0.3,2.7-0.1s1.5-1.1,1.8-2C45.5,8.9,45.5,7.9,45.2,7z"></path> </g> <g> <path class="st1" d="M62.1,2.9C62,2,61.6,1.2,60.9,0.7s-1.6-0.8-2.5-0.6c-0.9,0.2-1.7,0.7-2.2,1.3c-0.5,0.7-0.7,1.5-0.5,2.4 c0.2,0.9,0.7,1.6,1.3,2.1c0.7,0.5,1.5,0.7,2.3,0.6c0.8-0.1,1.5-0.6,2-1.2C61.9,4.6,62.2,3.8,62.1,2.9z"></path> </g> <g> <path class="st1" d="M79.5,3.6c0.1-0.8,0-1.5-0.5-2.1c-0.4-0.6-1.1-1-1.9-1.1c-0.8-0.1-1.6,0.1-2.2,0.6s-1,1.1-1,1.9 c-0.1,0.8,0.2,1.5,0.6,2.1c0.4,0.6,1.1,0.9,1.8,1c0.7,0.1,1.4-0.1,2-0.5C78.9,5,79.3,4.4,79.5,3.6z"></path> </g> <g> <path class="st2" d="M96,9.1c0.6-1.2,0.1-2.6-1.2-3.2c-1.3-0.6-2.7,0-3.2,1.2s0.1,2.6,1.2,3.1C94,10.8,95.4,10.3,96,9.1z"></path> </g> <g> <path class="st1" d="M110.4,18.9c0.7-0.8,0.7-2.1-0.2-2.8c-0.9-0.7-2.1-0.6-2.8,0.2c-0.7,0.9-0.6,2.1,0.2,2.8 C108.4,19.8,109.6,19.7,110.4,18.9z"></path> </g> <g> <path class="st2" d="M121.5,32.3c0.7-0.4,0.9-1.4,0.5-2.2c-0.5-0.7-1.5-0.9-2.2-0.4s-0.9,1.4-0.4,2.1 C119.9,32.5,120.8,32.7,121.5,32.3z"></path> </g> <g> <path class="st1" d="M128.6,48.2c0.6-0.2,1-0.8,0.8-1.4c-0.2-0.6-0.8-0.9-1.4-0.8c-0.6,0.2-0.9,0.8-0.7,1.4 C127.4,48,128,48.4,128.6,48.2z"></path> </g> </g> </g> <g> <path class="st0" d="M136.2,102.2l3.2-11.6h1.5l1.5,9.6l4.6-9.6h1.5l-0.5,11.6h-1.5l0.4-8.7l-4,8.7h-1.5l-1.2-8.7l-2.3,8.7H136.2z "></path> <path class="st0" d="M161.7,102.3c-0.6,0-1.1,0-1.6-0.1s-0.9-0.3-1.2-0.5c-0.3-0.3-0.6-0.6-0.8-1.1s-0.3-1.1-0.3-1.8 c0-0.4,0-0.8,0.1-1.2c0-0.4,0.1-0.9,0.2-1.4c0.2-1.1,0.4-2.1,0.7-2.8c0.3-0.7,0.7-1.3,1.1-1.7c0.4-0.4,1-0.7,1.6-0.9 c0.6-0.2,1.3-0.3,2.1-0.3c0.6,0,1.1,0,1.6,0.1s0.9,0.3,1.2,0.6c0.3,0.3,0.6,0.6,0.8,1.1s0.3,1.1,0.3,1.8c0,0.3,0,0.7-0.1,1.2 c0,0.4-0.1,0.9-0.2,1.4c-0.2,1.2-0.4,2.1-0.7,2.8c-0.3,0.7-0.7,1.3-1.1,1.7c-0.4,0.4-1,0.7-1.6,0.8S162.5,102.3,161.7,102.3z M162,100.9c0.5,0,1-0.1,1.4-0.2s0.7-0.4,1-0.7c0.3-0.3,0.5-0.8,0.7-1.3c0.2-0.6,0.4-1.3,0.5-2.1c0.1-0.5,0.1-0.9,0.2-1.3 c0-0.4,0.1-0.7,0.1-1c0-0.6-0.1-1.1-0.3-1.4s-0.5-0.5-0.8-0.7S164,92,163.4,92c-0.5,0-1,0.1-1.4,0.2s-0.7,0.4-1,0.7 c-0.3,0.3-0.5,0.8-0.7,1.4s-0.4,1.3-0.5,2.3c-0.1,0.5-0.1,0.9-0.2,1.3c0,0.4-0.1,0.7-0.1,1c0,0.6,0.1,1,0.3,1.4 c0.2,0.3,0.5,0.5,0.8,0.6C160.9,100.8,161.4,100.9,162,100.9z"></path> <path class="st0" d="M179.4,102.2l-2-11.6h1.6l1.6,9.9l4.9-9.9h1.6l-5.8,11.6H179.4z"></path> <path class="st0" d="M197.3,102.3c-0.3,0-0.6,0-0.9-0.1c-0.3-0.1-0.5-0.2-0.8-0.3c-0.2-0.2-0.4-0.4-0.5-0.7 c-0.1-0.3-0.1-0.7,0-1.2l1.1-6.9c0.1-0.6,0.3-1.1,0.6-1.5s0.6-0.6,1-0.7s0.8-0.2,1.2-0.2c0.8,0,1.6,0,2.4,0.1s1.6,0.1,2.4,0.1 l-0.2,1.3h-4.3c-0.4,0-0.7,0.1-1,0.3c-0.2,0.2-0.4,0.5-0.5,1l-0.4,2.3l4.8,0.1l-0.2,1.2l-4.9,0.1l-0.4,2.4c0,0.3,0,0.6,0.1,0.8 c0.1,0.2,0.2,0.3,0.4,0.4s0.4,0.1,0.7,0.1h4.2l-0.2,1.3c-0.7,0-1.5,0.1-2.3,0.1C198.9,102.3,198.1,102.3,197.3,102.3z"></path> <path class="st0" d="M211.5,102.2l3.2-11.6h1.5l1.5,9.6l4.6-9.6h1.5l-0.5,11.6h-1.5l0.4-8.7l-4,8.7h-1.5l-1.2-8.7l-2.3,8.7H211.5z "></path> <path class="st0" d="M235.3,102.3c-0.3,0-0.6,0-0.9-0.1c-0.3-0.1-0.5-0.2-0.8-0.3s-0.4-0.4-0.5-0.7c-0.1-0.3-0.1-0.7,0-1.2 l1.1-6.9c0.1-0.6,0.3-1.1,0.6-1.5s0.6-0.6,1-0.7s0.8-0.2,1.2-0.2c0.8,0,1.6,0,2.4,0.1s1.6,0.1,2.4,0.1l-0.2,1.3h-4.3 c-0.4,0-0.7,0.1-1,0.3c-0.2,0.2-0.4,0.5-0.5,1l-0.4,2.3l4.8,0.1l-0.2,1.2l-4.9,0.1l-0.4,2.4c0,0.3,0,0.6,0.1,0.8 c0.1,0.2,0.2,0.3,0.4,0.4s0.4,0.1,0.7,0.1h4.2l-0.2,1.3c-0.7,0-1.5,0.1-2.3,0.1C236.9,102.3,236.1,102.3,235.3,102.3z"></path> <path class="st0" d="M249.8,102.2l1.8-11.6h1.3l4.3,8.9l1.4-8.9h1.6l-1.8,11.6h-1.3l-4.3-8.9l-1.4,8.9H249.8z"></path> <path class="st0" d="M271.1,102.2l1.6-10.2h-3.5l0.2-1.4h8.6l-0.2,1.4h-3.5l-1.6,10.2H271.1z"></path> </g> </g> </svg> 